<svg width="50" height="50" viewBox="0 0 50 50" fill="none" xmlns="http://www.w3.org/2000/svg">
<g clip-path="url(#clip0_28_72)">
<path d="M25.0002 0C11.1948 0 0 11.4613 0 25.6002C0 36.911 7.16332 46.5071 17.0967 49.8922C18.3461 50.1291 18.8048 49.3368 18.8048 48.6607C18.8048 48.0502 18.7816 46.0336 18.7709 43.8944C11.8158 45.443 10.3482 40.8739 10.3482 40.8739C9.21093 37.9149 7.57235 37.1281 7.57235 37.1281C5.30408 35.5392 7.74332 35.5719 7.74332 35.5719C10.2538 35.7525 11.5757 38.21 11.5757 38.21C13.8054 42.1237 17.4241 40.9922 18.8508 40.3381C19.0751 38.6835 19.723 37.5541 20.438 36.9149C14.8851 36.2675 9.04782 34.0724 9.04782 24.2631C9.04782 21.4682 10.0244 19.1845 11.6237 17.3917C11.3641 16.7469 10.5084 14.1431 11.8659 10.6169C11.8659 10.6169 13.9652 9.92883 18.7427 13.241C20.7369 12.6738 22.8756 12.3893 25.0002 12.3796C27.1248 12.3893 29.2652 12.6738 31.2631 13.241C36.0348 9.92883 38.1312 10.6169 38.1312 10.6169C39.492 14.1431 38.6359 16.7469 38.3763 17.3917C39.9793 19.1845 40.9493 21.4682 40.9493 24.2631C40.9493 34.0957 35.1008 36.2607 29.5338 36.8945C30.4306 37.689 31.2296 39.2469 31.2296 41.6353C31.2296 45.0607 31.2006 47.8175 31.2006 48.6607C31.2006 49.3419 31.6506 50.1402 32.9178 49.8888C42.8458 46.4999 50 36.9072 50 25.6002C50 11.4613 38.8069 0 25.0002 0ZM9.36339 36.468C9.30833 36.5952 9.11292 36.6334 8.93491 36.546C8.75358 36.4625 8.65174 36.2891 8.71052 36.1615C8.76434 36.0305 8.96016 35.9941 9.14108 36.0818C9.32282 36.1654 9.42632 36.3404 9.36339 36.468ZM10.5931 37.5916C10.4739 37.7048 10.2408 37.6523 10.0827 37.4734C9.91914 37.2949 9.88851 37.0562 10.0094 36.9413C10.1323 36.8282 10.3584 36.8811 10.5223 37.0596C10.6859 37.2402 10.7177 37.4772 10.5931 37.5916ZM11.4368 39.0293C11.2836 39.1382 11.0331 39.036 10.8783 38.8084C10.7251 38.5807 10.7251 38.3077 10.8816 38.1984C11.0368 38.089 11.2836 38.1873 11.4405 38.4133C11.5933 38.6448 11.5933 38.9178 11.4368 39.0293ZM12.8635 40.6942C12.7265 40.849 12.4346 40.8074 12.221 40.5963C12.0024 40.3898 11.9416 40.0969 12.079 39.9422C12.2177 39.787 12.5112 39.8307 12.7265 40.0401C12.9434 40.2461 13.0097 40.5412 12.8635 40.6942ZM14.7075 41.2563C14.6471 41.4568 14.366 41.548 14.0828 41.4628C13.8 41.375 13.615 41.1401 13.6721 40.9375C13.7309 40.7357 14.0133 40.6408 14.2985 40.7319C14.5808 40.8192 14.7663 41.0524 14.7075 41.2563ZM16.806 41.4947C16.8131 41.7058 16.573 41.8809 16.2757 41.8847C15.9768 41.8915 15.735 41.7207 15.7317 41.513C15.7317 41.2997 15.9665 41.1263 16.2654 41.1212C16.5626 41.1153 16.806 41.2849 16.806 41.4947ZM18.8676 41.4138C18.9032 41.6198 18.6966 41.8314 18.4015 41.8878C18.1112 41.942 17.8426 41.8148 17.8057 41.6105C17.7697 41.3994 17.98 41.1878 18.2698 41.1332C18.5654 41.0806 18.8299 41.2044 18.8676 41.4138Z" fill="white"/>
</g>
<defs>
<clipPath id="clip0_28_72">
<rect width="50" height="50" fill="white"/>
</clipPath>
</defs>
</svg>
